<?xml version="1.0" standalone="no"?>
<!DOCTYPE svg PUBLIC "-//W3C//DTD SVG 20010904//EN"
 "http://www.w3.org/TR/2001/REC-SVG-20010904/DTD/svg10.dtd">
<svg version="1.0" xmlns="http://www.w3.org/2000/svg"
 width="512.000000pt" height="512.000000pt" viewBox="0 0 512.000000 512.000000"
 preserveAspectRatio="xMidYMid meet">

<g transform="translate(0.000000,512.000000) scale(0.100000,-0.100000)"
fill="#000000" stroke="none">
<path d="M2468 5110 c-28 -17 -22 -33 40 -99 45 -48 67 -63 105 -73 41 -11 49
-10 64 4 15 15 14 20 -15 65 -49 76 -84 105 -134 109 -24 3 -51 0 -60 -6z"/>
<path d="M2733 5103 c-23 -9 -14 -43 26 -97 46 -62 80 -86 131 -93 48 -7 57
14 29 70 -32 61 -61 97 -91 113 -27 14 -71 17 -95 7z"/>
<path d="M2213 5090 c-13 -5 -23 -17 -23 -27 0 -26 114 -121 154 -128 93 -18
111 19 45 90 -65 71 -116 89 -176 65z"/>
<path d="M2984 5056 c-9 -23 53 -133 91 -161 44 -35 99 -39 103 -9 4 29 -41
128 -72 159 -19 19 -35 25 -71 25 -30 0 -47 -5 -51 -14z"/>
<path d="M1963 5045 c-46 -20 -42 -45 15 -86 76 -55 89 -60 145 -57 41 2 53 7
55 22 7 36 -115 137 -165 136 -10 -1 -33 -7 -50 -15z"/>
<path d="M3240 4991 c0 -43 44 -132 81 -166 48 -43 99 -49 99 -12 0 50 -33
132 -65 164 -27 27 -41 33 -74 33 -34 0 -41 -3 -41 -19z"/>
<path d="M1713 4974 c-50 -25 -43 -48 30 -94 53 -34 70 -40 118 -40 40 0 61 5
70 16 18 22 4 41 -70 92 -68 46 -97 51 -148 26z"/>
<path d="M3503 4923 c-17 -6 -16 -34 3 -101 20 -69 77 -132 119 -132 28 0 28
0 22 58 -7 77 -33 140 -66 156 -36 18 -64 25 -78 19z"/>
<path d="M1469 4875 c-28 -15 -43 -41 -33 -56 3 -5 35 -23 71 -39 70 -32 123
-37 163 -17 43 22 36 43 -26 83 -67 43 -132 54 -175 29z"/>
<path d="M2310 4854 c-550 -68 -1026 -303 -1403 -694 -136 -140 -206 -229
-295 -371 -160 -254 -265 -524 -324 -834 -20 -107 -23 -150 -23 -395 0 -245 3
-288 23 -395 26 -133 59 -259 102 -380 245 -696 854 -1261 1564 -1449 230 -62
310 -71 606 -71 245 0 288 3 400 24 468 87 866 293 1204 621 345 335 569 750
663 1230 25 126 27 153 27 415 1 298 -5 349 -59 565 -200 796 -823 1438 -1610
1659 -219 61 -316 73 -590 76 -137 2 -266 1 -285 -1z m435 -54 c464 -43 877
-210 1228 -496 445 -362 726 -857 813 -1434 22 -140 25 -452 6 -585 -60 -423
-201 -764 -455 -1099 -73 -97 -284 -311 -384 -389 -255 -201 -574 -355 -883
-426 -325 -76 -695 -76 -1020 0 -562 130 -1067 488 -1382 980 -179 279 -281
555 -334 899 -24 157 -25 462 -1 620 63 410 215 766 465 1085 71 90 277 296
367 367 453 355 1028 529 1580 478z"/>
<path d="M2424 4545 c4 -52 5 -95 3 -95 -2 0 -35 38 -72 85 -65 80 -71 85
-107 85 -31 0 -38 -4 -38 -19 0 -30 30 -304 33 -308 8 -8 67 11 67 21 0 6 -5
49 -10 95 -5 47 -8 86 -6 88 1 2 34 -34 72 -78 91 -109 88 -106 123 -101 29 4
31 6 26 41 -7 49 -25 239 -25 262 0 15 -7 19 -36 19 l-37 0 7 -95z"/>
<path d="M2660 4611 c0 -31 14 -41 61 -41 34 0 35 -3 16 -157 -11 -86 -11
-103 1 -108 20 -8 62 -6 62 3 0 12 20 185 25 218 5 31 6 31 55 26 l50 -5 0 32
c0 17 -1 31 -2 31 -2 0 -57 7 -123 15 -153 19 -145 20 -145 -14z"/>
<path d="M1910 4537 c-52 -16 -96 -31 -98 -33 -7 -5 93 -304 101 -304 5 0 54
14 108 31 100 32 112 43 89 79 -8 12 -18 11 -77 -8 -37 -12 -71 -18 -74 -14
-4 4 -10 19 -14 33 -6 24 -3 27 55 44 53 16 60 21 54 39 -11 36 -20 38 -78 20
-31 -10 -58 -16 -60 -13 -2 2 -7 15 -11 29 -6 24 -2 27 64 48 39 13 71 26 71
30 -1 23 -14 52 -24 51 -6 -1 -54 -15 -106 -32z"/>
<path d="M3057 4428 c-27 -79 -51 -148 -53 -154 -2 -6 11 -15 31 -21 35 -11
36 -11 50 24 8 20 15 41 15 49 0 7 4 15 9 18 18 12 41 -22 53 -78 12 -56 15
-60 52 -72 l39 -14 -7 35 c-3 19 -9 50 -12 68 -5 29 -3 33 24 43 39 15 64 54
64 100 0 52 -36 85 -124 113 -40 13 -78 25 -83 28 -6 2 -32 -61 -58 -139z
m158 38 c34 -15 44 -37 27 -63 -10 -15 -30 -18 -74 -9 -42 9 -43 10 -27 55 12
35 24 37 74 17z"/>
<path d="M1527 4369 c-50 -26 -82 -92 -72 -149 22 -131 146 -195 253 -130 52
32 86 140 45 140 -40 0 -64 -12 -58 -30 8 -26 -32 -70 -64 -70 -75 0 -135 126
-83 173 21 19 72 23 88 7 7 -7 18 -2 35 16 l24 26 -24 19 c-31 25 -95 24 -144
-2z"/>
<path d="M3466 4253 l-136 -106 32 -20 c31 -18 31 -18 60 3 l28 21 53 -34 c50
-32 53 -36 49 -70 -4 -31 0 -37 26 -51 l30 -16 10 48 c36 168 54 273 49 284
-2 7 -18 21 -35 30 l-30 18 -136 -107z m120 -30 c-14 -76 -14 -76 -47 -56 -16
10 -29 20 -29 24 0 8 68 69 76 69 4 0 3 -17 0 -37z"/>
<path d="M2450 4168 c-383 -21 -750 -188 -1030 -468 -132 -132 -222 -258 -304
-425 -118 -239 -167 -448 -167 -715 0 -267 49 -476 167 -715 82 -167 172 -293
304 -425 309 -308 702 -471 1140 -471 556 0 1051 269 1358 739 260 399 326
923 173 1382 -159 474 -530 851 -1000 1014 -201 70 -410 98 -641 84z m258 -58
c553 -58 1022 -388 1257 -883 203 -429 203 -904 1 -1333 -208 -437 -613 -758
-1086 -858 -331 -70 -675 -29 -985 118 -587 278 -944 899 -886 1539 31 334
155 628 377 887 320 375 834 581 1322 530z"/>
<path d="M2542 4018 c-25 -25 0 -64 32 -52 21 8 21 50 0 58 -20 8 -18 8 -32
-6z"/>
<path d="M2426 4004 c-7 -19 10 -44 29 -44 19 0 36 25 29 44 -3 9 -16 16 -29
16 -13 0 -26 -7 -29 -16z"/>
<path d="M2644 4005 c-9 -23 3 -45 25 -45 20 0 37 32 26 50 -9 15 -45 12 -51
-5z"/>
<path d="M2324 3996 c-10 -26 4 -48 28 -44 17 2 23 10 23 28 0 18 -6 26 -23
28 -13 2 -25 -3 -28 -12z"/>
<path d="M2744 3996 c-10 -26 4 -48 28 -44 17 2 23 10 23 28 0 18 -6 26 -23
28 -13 2 -25 -3 -28 -12z"/>
<path d="M2220 3975 c-10 -12 -10 -18 0 -30 7 -8 18 -15 25 -15 7 0 18 7 25
15 10 12 10 18 0 30 -7 8 -18 15 -25 15 -7 0 -18 -7 -25 -15z"/>
<path d="M2854 3975 c-9 -23 3 -45 25 -45 21 0 33 22 25 45 -4 8 -15 15 -25
15 -11 0 -22 -7 -25 -15z"/>
<path d="M2113 3944 c-8 -20 21 -49 41 -41 9 4 16 18 16 32 0 20 -5 25 -25 25
-14 0 -28 -7 -32 -16z"/>
<path d="M2957 3954 c-14 -15 -6 -43 14 -49 25 -8 42 6 37 31 -3 19 -38 31
-51 18z"/>
<path d="M2020 3916 c-18 -22 -5 -48 22 -44 17 2 23 10 23 28 0 29 -26 38 -45
16z"/>
<path d="M3054 3915 c-4 -8 -3 -22 0 -31 8 -21 50 -14 54 10 6 31 -43 50 -54
21z"/>
<path d="M1921 3876 c-17 -20 -2 -46 25 -46 29 0 41 24 24 45 -16 19 -34 19
-49 1z"/>
<path d="M3163 3883 c-18 -6 -16 -50 1 -56 8 -3 22 1 33 8 28 21 -1 62 -34 48z"/>
<path d="M2493 3855 c-47 -20 -68 -75 -50 -130 7 -22 55 -55 80 -55 22 0 47
-28 47 -53 0 -13 -15 -35 -36 -52 -27 -23 -37 -40 -41 -72 -5 -39 -3 -44 40
-85 34 -32 46 -52 49 -78 2 -27 7 -35 23 -35 16 0 21 8 23 35 2 20 16 51 33
72 57 72 58 112 4 164 -44 41 -38 77 16 104 21 11 45 30 53 42 32 45 13 119
-35 144 -36 18 -163 18 -206 -1z m149 -67 l21 -21 -23 -19 c-28 -22 -73 -23
-95 -2 -22 22 -15 47 15 55 43 12 59 10 82 -13z m-17 -303 c0 -22 -31 -33 -48
-16 -7 7 -6 15 3 26 17 21 45 15 45 -10z"/>
<path d="M1824 3826 c-10 -26 4 -48 28 -44 17 2 23 10 23 28 0 18 -6 26 -23
28 -13 2 -25 -3 -28 -12z"/>
<path d="M3253 3833 c-17 -6 -16 -38 0 -52 19 -15 50 9 45 35 -3 19 -23 27
-45 17z"/>
<path d="M1734 3766 c-10 -26 4 -48 28 -44 17 2 23 10 23 28 0 18 -6 26 -23
28 -13 2 -25 -3 -28 -12z"/>
<path d="M3334 3766 c-10 -26 4 -48 28 -44 17 2 23 10 23 28 0 18 -6 26 -23
28 -13 2 -25 -3 -28 -12z"/>
<path d="M1650 3705 c-10 -12 -10 -18 0 -30 7 -8 18 -15 25 -15 7 0 18 7 25
15 10 12 10 18 0 30 -7 8 -18 15 -25 15 -7 0 -18 -7 -25 -15z"/>
<path d="M3421 3702 c-12 -22 3 -42 31 -42 24 0 34 26 18 45 -17 20 -37 19
-49 -3z"/>
<path d="M1566 3634 c-7 -19 10 -44 30 -44 20 0 36 34 22 48 -17 17 -45 15
-52 -4z"/>
<path d="M3504 3636 c-10 -26 4 -48 28 -44 17 2 23 10 23 28 0 18 -6 26 -23
28 -13 2 -25 -3 -28 -12z"/>
<path d="M1494 3565 c-4 -8 -3 -22 0 -31 8 -21 50 -14 54 10 6 31 -43 50 -54
21z"/>
<path d="M1965 3557 c-9 -14 -14 -43 -14 -73 1 -29 -11 -95 -31 -164 -18 -63
-44 -162 -59 -220 l-27 -105 -40 -3 c-21 -2 -43 -7 -47 -12 -14 -13 59 -86
121 -121 48 -27 69 -32 142 -36 119 -7 178 16 243 93 26 31 47 62 47 69 0 17
-23 25 -49 18 -12 -3 -27 0 -34 6 -8 6 -35 77 -61 158 -27 82 -56 172 -67 202
-10 30 -16 58 -13 63 3 4 24 8 46 8 23 0 79 12 124 27 l82 26 27 -21 c36 -29
61 -28 80 2 15 22 15 27 1 55 -31 60 -86 64 -203 17 -34 -14 -80 -28 -103 -32
-38 -6 -43 -4 -74 30 -39 42 -69 46 -91 13z m95 -194 c7 -27 32 -106 56 -178
24 -71 44 -142 44 -157 0 -27 -1 -28 -59 -28 l-59 0 -7 138 c-11 202 -13 266
-8 275 9 15 20 -3 33 -50z m-59 -123 c1 -69 3 -152 3 -185 l1 -60 -62 0 c-34
0 -64 3 -68 7 -3 3 8 55 25 114 16 60 40 143 51 184 30 108 30 109 39 85 4
-11 9 -76 11 -145z"/>
<path d="M3582 3568 c-25 -25 0 -64 32 -52 21 8 21 50 0 58 -20 8 -18 8 -32
-6z"/>
<path d="M3092 3543 c-24 -32 -86 -34 -165 -5 -79 30 -131 29 -162 -3 -31 -30
-34 -80 -6 -95 32 -17 60 -11 77 15 21 32 47 32 110 0 27 -14 65 -25 84 -25
66 0 66 3 7 -236 l-54 -219 -43 -5 c-24 -3 -45 -10 -47 -16 -5 -16 89 -99 144
-125 65 -31 186 -38 249 -14 44 17 109 73 142 123 20 30 5 42 -56 42 -50 0
-43 -12 -103 185 -23 77 -55 172 -70 212 -23 58 -26 77 -19 104 19 65 -51 113
-88 62z m42 -235 c16 -204 18 -308 6 -323 -16 -19 -108 -21 -116 -2 -3 8 9 70
26 138 27 105 60 248 60 256 0 2 4 3 9 3 5 0 11 -33 15 -72z m61 -24 c30 -72
88 -282 82 -298 -8 -20 -70 -22 -86 -3 -11 14 -28 337 -17 337 3 0 13 -16 21
-36z"/>
<path d="M1424 3485 c-9 -23 3 -45 25 -45 25 0 34 14 26 40 -7 23 -43 27 -51
5z"/>
<path d="M3652 3488 c-18 -18 -15 -36 7 -48 15 -7 23 -6 35 6 20 19 20 19 0
38 -19 19 -26 20 -42 4z"/>
<path d="M1365 3403 c-18 -18 -16 -32 8 -47 21 -13 51 13 42 36 -10 24 -32 29
-50 11z"/>
<path d="M3714 3396 c-10 -26 4 -48 28 -44 17 2 23 10 23 28 0 18 -6 26 -23
28 -13 2 -25 -3 -28 -12z"/>
<path d="M1306 3314 c-12 -12 -13 -20 -6 -35 12 -22 30 -25 48 -7 18 18 15 36
-7 48 -15 7 -23 6 -35 -6z"/>
<path d="M3766 3304 c-7 -19 10 -44 29 -44 19 0 36 25 29 44 -3 9 -16 16 -29
16 -13 0 -26 -7 -29 -16z"/>
<path d="M1246 3214 c-10 -26 19 -52 42 -38 9 6 17 20 17 30 0 26 -50 32 -59
8z"/>
<path d="M2480 3223 c-25 -9 -110 -66 -110 -73 0 -4 18 -32 40 -64 66 -94 74
-114 74 -197 1 -59 -4 -86 -22 -125 l-23 -49 -107 1 c-120 1 -338 -28 -384
-52 -20 -10 -42 -13 -67 -9 -24 4 -52 1 -77 -9 -21 -8 -70 -17 -107 -19 -72
-5 -107 -24 -107 -59 0 -25 28 -34 130 -43 91 -8 147 -20 250 -55 83 -28 188
-28 305 -1 48 12 99 21 114 21 47 0 95 -67 85 -119 -6 -30 -27 -41 -39 -21 -9
15 -35 12 -35 -4 0 -16 35 -81 58 -108 12 -14 11 -18 -8 -28 -26 -14 -80 -3
-80 16 0 25 -36 87 -78 134 -33 37 -41 42 -47 28 -4 -10 5 -49 19 -89 14 -40
26 -76 26 -81 0 -10 -66 0 -93 14 -10 5 -29 33 -43 62 -26 55 -51 79 -122 115
-54 28 -62 13 -31 -59 24 -56 73 -100 135 -120 19 -6 34 -15 34 -20 0 -11 -65
-30 -102 -30 -17 0 -28 -5 -28 -14 0 -21 68 -49 129 -54 51 -4 56 -3 80 26 24
29 30 30 74 25 55 -7 61 -24 17 -50 -43 -25 -34 -46 22 -57 58 -11 104 12 133
68 11 22 27 42 35 46 42 21 144 59 148 56 2 -3 -5 -17 -16 -33 -10 -15 -25
-45 -32 -66 -10 -31 -21 -42 -54 -57 -48 -21 -72 -45 -82 -83 -7 -29 -6 -29
37 -26 39 3 44 1 49 -20 3 -14 11 -26 17 -28 20 -7 71 75 83 133 7 32 23 69
38 87 15 18 32 41 38 52 15 28 36 29 65 5 l24 -20 -24 -20 c-13 -11 -29 -20
-37 -20 -32 0 -96 -102 -76 -122 5 -5 20 -4 36 3 34 16 49 -1 42 -43 -8 -41
10 -43 39 -4 18 24 43 40 76 51 46 16 71 33 137 98 32 32 28 47 -10 41 -20 -3
-40 0 -52 9 -19 14 -18 16 22 54 34 33 42 47 42 76 0 45 -19 48 -62 12 -46
-39 -68 -29 -68 30 0 12 -7 28 -16 36 -20 16 -28 4 -46 -64 l-12 -49 -46 7
c-25 3 -50 13 -57 22 -19 25 -55 140 -51 164 5 39 50 45 133 19 77 -24 135
-24 265 0 37 7 154 12 273 13 196 0 207 1 207 19 0 40 -78 88 -143 88 -10 0
-20 7 -23 15 -13 33 -37 39 -244 65 -41 5 -97 14 -125 19 -127 25 -175 30
-244 25 -41 -3 -82 -9 -91 -14 -41 -22 -51 42 -26 160 18 86 65 203 93 237 30
34 29 51 -4 65 -16 7 -37 20 -48 29 -37 32 -173 51 -225 32z m38 -54 c5 -42
23 -89 34 -89 7 0 9 17 6 45 -6 53 11 87 34 67 11 -9 14 -26 10 -62 -6 -63 11
-66 28 -5 7 25 17 45 22 45 6 0 7 -8 3 -17 -27 -70 -8 -116 21 -48 14 33 44
49 44 23 0 -7 -18 -54 -40 -104 -46 -105 -62 -173 -61 -262 2 -84 13 -106 52
-98 21 4 31 1 35 -9 8 -20 21 -19 51 5 14 11 31 20 38 20 8 0 11 -8 8 -20 -3
-11 0 -20 6 -20 7 0 29 9 51 20 22 11 46 20 55 20 24 0 18 -20 -10 -30 -24 -9
-35 -30 -16 -30 5 0 30 9 56 20 26 11 60 20 77 20 26 0 29 -2 18 -16 -8 -8
-28 -21 -47 -29 -32 -14 -45 -35 -20 -35 6 0 39 14 72 30 66 33 116 46 142 35
16 -6 15 -8 -7 -20 -14 -8 -32 -14 -41 -15 -27 0 -119 -42 -113 -51 2 -5 28 0
57 10 88 32 163 51 204 51 38 0 72 -14 62 -25 -4 -3 -62 -15 -130 -26 -68 -12
-126 -23 -128 -25 -14 -13 19 -13 120 -2 145 17 263 16 284 -2 8 -7 13 -15 11
-17 -3 -3 -85 -7 -183 -8 -98 -2 -207 -8 -243 -14 -137 -22 -197 -24 -247 -8
-26 8 -67 18 -90 22 -29 4 -43 12 -46 26 -7 28 -26 23 -33 -8 -10 -49 -13 -53
-33 -53 -19 0 -19 -2 5 -37 23 -35 26 -74 7 -105 -18 -31 -83 17 -127 93 -43
72 -84 99 -150 99 -28 -1 -76 -9 -106 -20 -68 -24 -193 -36 -240 -22 -19 5
-75 22 -125 37 -49 14 -127 30 -173 34 -87 9 -106 16 -82 31 40 25 266 3 357
-35 41 -17 58 -11 28 11 -18 13 -40 21 -150 50 -29 8 -28 9 14 12 25 2 72 -6
113 -18 88 -27 110 -20 40 12 -87 39 -26 55 69 18 63 -25 100 -23 52 3 -39 21
-45 41 -8 27 14 -5 38 -16 55 -25 16 -8 31 -15 35 -15 12 0 4 24 -12 36 -17
13 -17 13 2 14 11 0 34 -9 50 -20 36 -24 55 -25 55 -5 0 8 -4 15 -10 15 -5 0
-10 4 -10 9 0 5 18 2 40 -6 27 -11 40 -22 40 -35 0 -31 22 -16 62 43 41 63 68
143 68 205 0 52 -30 136 -70 195 -33 50 -30 68 5 24 31 -37 38 -30 21 20 -10
27 -11 46 -4 58 12 24 32 17 36 -14z m-443 -839 c3 -5 2 -10 -4 -10 -5 0 -13
5 -16 10 -3 6 -2 10 4 10 5 0 13 -4 16 -10z m815 -37 c0 -19 -3 -24 -10 -17
-6 6 -8 18 -4 27 9 24 14 21 14 -10z m-570 -32 c0 -28 -16 -27 -24 2 -10 40
-8 50 9 33 8 -8 15 -24 15 -35z m290 34 c38 -20 38 -32 0 -40 -37 -8 -50 0
-50 31 0 28 10 30 50 9z m-127 -45 c-6 -6 -33 30 -33 44 0 6 9 0 20 -14 10
-14 16 -27 13 -30z m504 3 c-9 -9 -19 -14 -23 -11 -10 10 6 28 24 28 15 0 15
-1 -1 -17z m-797 -93 c0 -5 -7 -10 -16 -10 -8 0 -12 5 -9 10 3 6 10 10 16 10
5 0 9 -4 9 -10z m250 -35 c-22 -24 -50 -34 -50 -17 0 9 63 51 69 46 3 -2 -6
-15 -19 -29z m476 4 c10 -16 -23 -46 -36 -33 -6 6 -8 18 -4 27 7 19 29 22 40
6z m-77 -71 c-7 -13 -14 -18 -16 -11 -3 7 1 22 8 35 7 13 14 18 16 11 3 -7 -1
-22 -8 -35z m125 17 c-16 -24 -44 -34 -44 -16 0 11 39 41 52 41 5 0 1 -11 -8
-25z m-184 -4 c-11 -21 -30 -37 -30 -25 0 8 30 44 37 44 2 0 -1 -9 -7 -19z
m-197 -53 c-13 -12 -26 -18 -30 -14 -4 4 1 14 11 22 31 22 43 17 19 -8z"/>
<path d="M2555 2540 c-8 -13 3 -30 20 -30 14 0 27 24 18 34 -10 9 -31 7 -38
-4z"/>
<path d="M3821 3216 c-16 -20 -3 -46 24 -46 13 0 26 7 29 16 7 19 -10 44 -29
44 -7 0 -18 -6 -24 -14z"/>
<path d="M1212 3128 c-25 -25 0 -64 32 -52 21 8 21 50 0 58 -20 8 -18 8 -32
-6z"/>
<path d="M3864 3116 c-10 -26 4 -48 28 -44 17 2 23 10 23 28 0 18 -6 26 -23
28 -13 2 -25 -3 -28 -12z"/>
<path d="M1171 3026 c-15 -17 1 -56 23 -56 23 0 41 30 29 48 -14 23 -37 26
-52 8z"/>
<path d="M3896 3014 c-7 -19 10 -44 29 -44 19 0 36 25 29 44 -3 9 -16 16 -29
16 -13 0 -26 -7 -29 -16z"/>
<path d="M1137 2917 c-3 -8 1 -23 8 -34 11 -14 18 -16 32 -7 28 17 23 48 -8
52 -16 2 -29 -3 -32 -11z"/>
<path d="M3926 2914 c-7 -18 10 -44 28 -44 23 0 36 22 25 42 -12 22 -45 24
-53 2z"/>
<path d="M1116 2815 c-9 -24 4 -45 29 -45 27 0 40 26 24 46 -15 18 -45 18 -53
-1z"/>
<path d="M3952 2813 c-13 -26 -4 -43 24 -43 29 0 41 24 24 45 -17 20 -37 19
-48 -2z"/>
<path d="M1117 2718 c-21 -11 -22 -31 -3 -47 20 -16 46 -3 46 24 0 27 -19 37
-43 23z"/>
<path d="M3964 2706 c-10 -26 4 -48 28 -44 17 2 23 10 23 28 0 18 -6 26 -23
28 -13 2 -25 -3 -28 -12z"/>
<path d="M1101 2606 c-16 -20 -3 -46 24 -46 13 0 26 7 29 16 7 19 -10 44 -29
44 -7 0 -18 -6 -24 -14z"/>
<path d="M3972 2608 c-18 -18 -15 -36 7 -48 15 -7 23 -6 35 6 21 20 20 31 -3
44 -24 13 -24 13 -39 -2z"/>
<path d="M1460 2543 c0 -17 337 -359 400 -405 l35 -26 -30 -35 c-100 -119
-156 -189 -180 -226 -15 -22 -35 -41 -43 -41 -15 0 -168 100 -225 147 -34 28
-67 30 -67 6 0 -11 33 -40 82 -73 44 -30 103 -71 130 -89 l50 -35 -7 -45 c-3
-26 -8 -57 -11 -71 l-5 -25 93 0 c86 0 98 -3 168 -36 41 -20 99 -42 128 -49
53 -12 54 -12 83 16 25 24 32 26 53 16 14 -6 34 -29 46 -51 11 -23 34 -48 50
-56 16 -8 37 -29 45 -45 11 -21 27 -32 58 -40 23 -6 53 -15 67 -19 14 -4 86
-7 161 -5 102 1 144 6 167 18 17 9 46 16 65 16 21 0 41 7 52 20 10 11 29 20
42 20 23 0 40 15 93 80 34 43 58 50 100 34 29 -12 74 -13 235 -7 l200 8 0 80
c0 76 1 80 25 86 90 25 145 46 154 61 6 9 8 20 4 23 -3 3 -47 -6 -98 -20 -77
-22 -95 -24 -106 -13 -30 31 -174 314 -174 342 0 8 11 22 25 31 24 14 34 21
115 75 71 47 125 91 227 183 73 65 103 99 103 115 0 12 -6 22 -14 22 -8 0 -74
-52 -147 -115 -73 -64 -179 -147 -236 -185 -89 -59 -109 -68 -137 -63 -24 4
-39 -1 -62 -19 -16 -14 -55 -42 -87 -62 -33 -20 -85 -58 -118 -84 -50 -40 -59
-52 -59 -79 0 -42 -21 -53 -102 -53 -76 0 -222 -17 -261 -30 -22 -7 -43 -5
-85 9 -32 11 -92 22 -135 26 -62 6 -81 12 -95 29 -9 12 -76 79 -149 150 -119
115 -134 126 -153 116 -26 -14 -32 -10 -263 216 -97 96 -184 174 -192 174 -8
0 -15 -8 -15 -17z m1833 -542 c24 -47 66 -129 94 -181 29 -52 55 -112 58 -132
8 -44 -1 -50 -107 -67 -34 -6 -96 -19 -135 -28 -48 -11 -76 -14 -83 -7 -5 5
-18 43 -28 84 -19 73 -91 232 -112 245 -22 14 -7 41 38 72 26 17 80 55 121 83
70 48 75 50 92 34 10 -9 38 -56 62 -103z m-1229 14 l96 -95 -59 -123 c-32 -67
-64 -139 -71 -160 -15 -48 -32 -55 -76 -31 -55 30 -58 38 -24 74 38 41 40 82
4 107 -14 10 -43 33 -64 51 -42 36 -70 41 -70 13 0 -13 18 -29 53 -49 72 -40
81 -52 60 -81 -13 -20 -22 -22 -57 -18 -27 4 -48 15 -64 32 -26 31 -53 30 -67
-3 -6 -13 -19 -22 -32 -22 -52 0 -10 94 96 215 34 39 82 96 108 128 25 31 52
57 58 57 7 0 56 -43 109 -95z m180 -180 c16 -3 65 -8 109 -10 43 -2 82 -7 85
-10 11 -11 -14 -40 -56 -63 -69 -38 -66 -85 6 -97 25 -4 64 2 125 20 100 29
125 30 171 11 46 -19 81 -52 122 -113 20 -30 46 -61 60 -69 28 -19 32 -44 6
-44 -38 0 -87 21 -138 60 -29 22 -58 40 -64 40 -23 0 -7 -19 50 -61 62 -45 70
-62 32 -67 -35 -5 -86 16 -130 53 -22 20 -43 31 -46 26 -4 -5 14 -27 39 -47
25 -21 45 -42 45 -46 0 -4 -17 -8 -38 -8 -26 0 -55 11 -92 34 -30 19 -57 33
-59 30 -3 -2 11 -20 29 -39 34 -35 34 -35 9 -35 -37 0 -65 25 -85 75 -14 37
-27 52 -74 80 -32 19 -69 35 -84 35 -14 0 -26 4 -26 9 0 5 -13 14 -29 21 -22
9 -33 9 -48 -1 -16 -9 -25 -8 -46 6 -15 9 -27 23 -27 30 0 14 75 176 86 188 4
4 15 5 23 3 9 -2 29 -7 45 -11z m758 -45 c15 -30 33 -77 40 -104 13 -47 12
-49 -12 -65 -14 -9 -46 -36 -72 -60 -57 -52 -82 -51 -115 8 -31 54 -29 61 17
61 22 0 40 4 40 8 0 20 -28 32 -72 32 -35 0 -67 9 -116 34 -63 32 -70 33 -124
25 -32 -5 -81 -18 -108 -29 -56 -22 -100 -26 -100 -9 0 14 16 28 86 74 55 36
124 50 374 73 136 13 131 15 162 -48z m-775 -249 c5 -33 3 -41 -10 -41 -9 0
-18 8 -20 18 -14 49 -17 74 -11 83 11 19 35 -16 41 -60z m81 -37 c16 -56 15
-84 -3 -84 -21 0 -35 33 -35 83 0 73 18 73 38 1z m90 -53 c20 -50 20 -61 -4
-61 -17 0 -44 52 -44 85 0 42 26 29 48 -24z"/>
<path d="M3275 1820 c-11 -5 -37 -11 -57 -15 -105 -17 -102 -161 3 -180 42 -7
143 26 147 49 6 26 -25 29 -61 7 -54 -33 -113 -25 -137 18 -7 14 -5 25 11 45
18 23 27 26 84 26 66 0 93 15 81 45 -6 16 -39 19 -71 5z"/>
<path d="M1100 2485 c0 -31 26 -43 47 -22 21 21 9 47 -22 47 -20 0 -25 -5 -25
-25z"/>
<path d="M3965 2490 c-8 -26 6 -43 31 -38 13 2 19 12 19 28 0 34 -40 41 -50
10z"/>
<path d="M1110 2391 c-14 -28 13 -55 41 -41 22 12 25 30 7 48 -18 18 -36 15
-48 -7z"/>
<path d="M3963 2395 c-14 -11 -16 -18 -7 -32 17 -28 48 -23 52 8 4 32 -18 43
-45 24z"/>
<path d="M1126 2284 c-7 -19 10 -44 30 -44 16 0 33 30 27 48 -7 18 -50 15 -57
-4z"/>
<path d="M3941 2286 c-16 -20 -3 -46 24 -46 13 0 26 7 29 16 7 19 -10 44 -29
44 -7 0 -18 -6 -24 -14z"/>
<path d="M1154 2186 c-10 -26 4 -48 28 -44 17 2 23 10 23 28 0 18 -6 26 -23
28 -13 2 -25 -3 -28 -12z"/>
<path d="M3922 2188 c-26 -26 -2 -64 30 -47 22 12 24 45 2 53 -20 8 -18 8 -32
-6z"/>
<path d="M1190 2086 c-18 -22 -5 -48 22 -44 17 2 23 10 23 28 0 29 -26 38 -45
16z"/>
<path d="M3887 2094 c-13 -14 -7 -52 10 -58 25 -10 51 20 37 42 -12 19 -36 27
-47 16z"/>
<path d="M1224 1986 c-10 -26 4 -48 28 -44 17 2 23 10 23 28 0 18 -6 26 -23
28 -13 2 -25 -3 -28 -12z"/>
<path d="M3847 1994 c-12 -13 -8 -52 7 -57 8 -3 22 1 33 8 14 11 16 18 7 32
-12 19 -36 28 -47 17z"/>
<path d="M1282 1898 c-28 -28 -3 -66 33 -52 25 10 12 64 -15 64 -3 0 -11 -5
-18 -12z"/>
<path d="M3794 1886 c-10 -26 4 -48 28 -44 17 2 23 10 23 28 0 18 -6 26 -23
28 -13 2 -25 -3 -28 -12z"/>
<path d="M1324 1795 c-4 -9 0 -23 9 -32 21 -21 49 -9 45 19 -4 28 -45 38 -54
13z"/>
<path d="M3736 1794 c-7 -19 10 -44 29 -44 7 0 18 7 25 15 10 12 10 18 0 30
-16 20 -46 19 -54 -1z"/>
<path d="M1390 1715 c-17 -21 -5 -45 24 -45 28 0 37 17 24 43 -11 21 -31 22
-48 2z"/>
<path d="M3674 1705 c-7 -18 12 -45 32 -45 16 0 33 30 27 48 -7 17 -52 15 -59
-3z"/>
<path d="M1462 1638 c-16 -16 -15 -33 2 -47 18 -15 46 -4 46 18 0 17 -18 41
-30 41 -3 0 -11 -5 -18 -12z"/>
<path d="M3614 1625 c-8 -21 2 -45 19 -45 20 0 40 27 33 45 -7 19 -45 20 -52
0z"/>
<path d="M1530 1555 c-17 -21 -5 -45 24 -45 28 0 37 17 24 43 -11 21 -31 22
-48 2z"/>
<path d="M3542 1558 c-7 -7 -12 -17 -12 -24 0 -18 26 -35 43 -28 24 9 30 37
11 51 -22 16 -27 16 -42 1z"/>
<path d="M1612 1488 c-25 -25 0 -64 32 -52 21 8 21 50 0 58 -20 8 -18 8 -32
-6z"/>
<path d="M3466 1484 c-12 -12 -13 -20 -6 -35 12 -22 30 -25 48 -7 18 18 15 36
-7 48 -15 7 -23 6 -35 -6z"/>
<path d="M1691 1416 c-16 -20 -3 -46 24 -46 13 0 26 7 29 16 7 19 -10 44 -29
44 -7 0 -18 -6 -24 -14z"/>
<path d="M3374 1416 c-10 -26 4 -48 28 -44 17 2 23 10 23 28 0 18 -6 26 -23
28 -13 2 -25 -3 -28 -12z"/>
<path d="M1775 1360 c-11 -18 6 -50 25 -50 25 0 43 33 28 48 -15 15 -45 16
-53 2z"/>
<path d="M3291 1356 c-16 -20 -3 -46 24 -46 13 0 26 7 29 16 7 19 -10 44 -29
44 -7 0 -18 -6 -24 -14z"/>
<path d="M1871 1306 c-16 -20 -3 -46 24 -46 13 0 26 7 29 16 7 19 -10 44 -29
44 -7 0 -18 -6 -24 -14z"/>
<path d="M3200 1306 c-18 -22 -5 -48 22 -44 17 2 23 10 23 28 0 29 -26 38 -45
16z"/>
<path d="M1964 1256 c-10 -26 4 -48 28 -44 17 2 23 10 23 28 0 18 -6 26 -23
28 -13 2 -25 -3 -28 -12z"/>
<path d="M3096 1254 c-8 -21 11 -44 35 -44 19 0 35 33 24 50 -10 16 -52 12
-59 -6z"/>
<path d="M2071 1227 c-15 -15 -14 -32 3 -46 20 -16 46 -3 46 24 0 25 -32 39
-49 22z"/>
<path d="M3000 1205 c0 -31 26 -43 47 -22 21 21 9 47 -22 47 -20 0 -25 -5 -25
-25z"/>
<path d="M2163 1184 c-8 -20 21 -49 41 -41 9 4 16 18 16 32 0 20 -5 25 -25 25
-14 0 -28 -7 -32 -16z"/>
<path d="M2897 1187 c-3 -8 1 -23 8 -34 11 -14 18 -16 32 -7 28 17 23 48 -8
52 -16 2 -29 -3 -32 -11z"/>
<path d="M2271 1166 c-16 -20 -3 -46 24 -46 13 0 26 7 29 16 7 19 -10 44 -29
44 -7 0 -18 -6 -24 -14z"/>
<path d="M2794 1166 c-10 -26 4 -48 28 -44 17 2 23 10 23 28 0 18 -6 26 -23
28 -13 2 -25 -3 -28 -12z"/>
<path d="M2382 1158 c-17 -17 -15 -45 5 -52 24 -10 51 20 37 41 -14 22 -27 26
-42 11z"/>
<path d="M2703 1163 c-18 -7 -16 -52 2 -59 18 -7 45 12 45 32 0 16 -30 33 -47
27z"/>
<path d="M2487 1147 c-11 -7 -16 -19 -12 -29 9 -24 30 -29 52 -13 14 11 16 18
7 31 -14 24 -26 27 -47 11z"/>
<path d="M2592 1148 c-25 -25 0 -64 32 -52 21 8 21 50 0 58 -20 8 -18 8 -32
-6z"/>
<path d="M3797 4026 c-59 -63 -107 -116 -107 -118 0 -2 37 -37 81 -78 l81 -73
19 24 18 24 -49 50 -50 50 27 30 c14 17 53 58 87 92 l60 63 -24 25 c-13 14
-26 25 -30 25 -3 0 -54 -51 -113 -114z"/>
<path d="M1097 4042 c-10 -10 -17 -23 -17 -29 0 -16 31 -38 54 -38 13 0 20 -6
18 -14 -2 -8 0 -21 3 -29 9 -23 35 5 35 38 0 30 -43 90 -64 90 -7 0 -20 -8
-29 -18z"/>
<path d="M985 3896 c-43 -19 -85 -68 -95 -110 -10 -45 13 -95 53 -114 35 -17
54 -10 119 39 55 41 65 43 82 17 14 -24 -18 -67 -65 -87 -32 -13 -39 -21 -39
-44 0 -36 20 -43 62 -22 72 37 108 88 108 154 0 31 -6 46 -27 66 -41 37 -80
33 -144 -15 -58 -43 -82 -47 -87 -14 -3 24 49 74 77 74 14 0 16 7 13 35 -5 38
-12 41 -57 21z"/>
<path d="M4230 3669 c-62 -25 -74 -65 -44 -152 18 -53 14 -77 -14 -77 -33 0
-57 38 -57 91 0 45 -2 49 -28 55 -16 3 -31 3 -35 -1 -14 -14 -5 -91 15 -130
32 -62 57 -80 115 -80 83 0 105 46 72 155 -14 48 -14 54 1 69 15 15 18 14 41
-12 17 -20 24 -40 24 -68 0 -37 2 -39 30 -39 39 0 49 34 25 95 -15 40 -64 95
-85 95 -5 0 -14 2 -22 4 -7 3 -24 0 -38 -5z"/>
<path d="M765 3538 c-41 -22 -68 -55 -101 -121 l-35 -68 146 -70 c81 -39 148
-69 150 -67 2 2 17 32 34 68 41 87 43 155 4 201 -48 57 -147 86 -198 57z m104
-77 c54 -28 70 -69 46 -120 l-17 -39 -77 37 c-109 53 -103 47 -86 81 17 33 52
60 78 60 10 0 35 -9 56 -19z"/>
<path d="M4338 3300 c-15 -4 -41 -18 -58 -30 -102 -73 -70 -235 53 -265 26 -7
27 -6 27 33 0 35 -3 40 -29 45 -37 8 -57 52 -40 90 24 52 137 77 172 39 21
-23 22 -70 1 -93 -14 -15 -13 -19 8 -44 l23 -26 24 25 c14 15 25 41 28 69 13
111 -94 192 -209 157z"/>
<path d="M556 3128 c-3 -17 -5 -33 -3 -34 2 -2 39 -11 82 -20 44 -9 84 -20 88
-24 4 -4 -40 -24 -98 -46 -100 -37 -106 -41 -115 -73 -5 -19 -8 -37 -6 -39 7
-6 307 -74 312 -70 2 3 7 18 10 35 l6 31 -96 22 c-53 13 -95 24 -93 26 2 2 53
23 112 47 93 37 110 47 118 71 5 15 7 30 3 33 -5 6 -282 72 -302 73 -6 0 -14
-14 -18 -32z"/>
<path d="M4435 2884 c-66 -7 -123 -13 -127 -13 -5 -1 -8 -17 -8 -37 l0 -37 65
5 c36 3 67 3 69 -1 3 -3 6 -33 7 -66 l3 -60 -65 -5 -64 -5 3 -35 c2 -19 5 -36
7 -38 1 -1 71 4 155 13 84 8 154 15 156 15 2 0 4 16 4 36 l0 37 -64 -5 -64 -6
-6 37 c-3 20 -6 51 -6 69 0 31 1 32 44 32 65 0 76 7 76 46 0 40 6 39 -185 18z"/>
<path d="M487 2703 c-4 -3 -7 -54 -7 -113 l0 -107 156 -8 c85 -4 157 -5 160
-3 2 3 5 54 7 114 l2 109 -32 3 -33 3 0 -75 0 -76 -35 0 -35 0 0 65 0 65 -30
0 -30 0 0 -66 0 -65 -32 3 -33 3 2 70 c1 44 -3 73 -10 77 -15 10 -42 10 -50 1z"/>
<path d="M4396 2450 c-41 -13 -73 -46 -92 -96 -40 -106 38 -204 162 -204 119
0 190 98 149 206 -29 77 -133 122 -219 94z m124 -85 c55 -28 52 -105 -4 -132
-65 -31 -156 9 -156 70 0 47 34 77 87 77 24 0 57 -7 73 -15z"/>
<path d="M633 2317 c-126 -19 -133 -21 -133 -43 0 -52 -1 -52 166 -28 86 12
157 24 159 26 1 2 0 18 -2 36 -6 38 -3 38 -190 9z"/>
<path d="M800 2109 l-45 -52 -32 17 c-40 20 -66 20 -103 1 -35 -18 -50 -43
-50 -85 0 -41 41 -180 54 -180 5 0 74 21 154 46 l144 45 -6 31 c-3 18 -8 34
-11 36 -4 5 -62 -10 -101 -25 -29 -11 -13 42 27 89 40 48 40 49 27 89 l-13 40
-45 -52z m-90 -121 c28 -46 25 -64 -11 -77 -45 -15 -45 -15 -58 28 -16 54 -6
73 42 80 4 0 16 -14 27 -31z"/>
<path d="M4275 2016 c-44 -20 -72 -55 -86 -108 -12 -43 -11 -50 12 -95 48 -93
176 -128 253 -70 43 33 71 102 62 151 -18 97 -148 163 -241 122z m112 -75 c65
-30 80 -76 41 -126 -19 -25 -26 -27 -70 -23 -82 8 -129 71 -97 129 21 40 66
47 126 20z"/>
<path d="M853 1708 c-29 -14 -29 -23 2 -77 31 -54 31 -57 -5 -76 l-29 -15 -36
65 c-20 36 -39 65 -42 65 -4 0 -44 -20 -51 -25 -4 -3 99 -184 109 -190 8 -6
279 141 279 151 0 3 -7 18 -15 35 l-16 30 -54 -31 -54 -31 -32 55 c-17 31 -32
56 -32 55 -1 0 -12 -5 -24 -11z"/>
<path d="M4027 1597 l-59 -91 24 -18 c13 -9 25 -17 28 -17 3 0 22 27 42 60
l38 59 85 -55 c48 -30 97 -62 110 -71 22 -14 24 -14 39 8 9 12 16 28 16 34 0
9 -173 128 -255 176 -6 4 -37 -35 -68 -85z"/>
<path d="M3047 853 l-79 -25 7 -36 c23 -125 26 -132 52 -132 14 0 36 9 50 20
33 26 58 25 77 -2 20 -28 20 -43 0 -62 -20 -20 -53 -20 -75 0 -16 14 -20 14
-49 -1 -29 -15 -31 -18 -17 -38 8 -12 33 -29 55 -37 38 -13 45 -12 89 6 64 26
91 76 74 134 -6 22 -23 48 -38 59 -30 25 -89 28 -120 6 -19 -13 -21 -13 -26 7
-8 30 -6 32 63 53 44 13 59 22 55 33 -3 7 -5 20 -5 28 0 19 -21 17 -113 -13z"/>
<path d="M2083 828 c-12 -13 -27 -18 -51 -16 -54 4 -74 -46 -22 -57 16 -4 32
-10 34 -14 3 -4 -7 -48 -21 -99 -27 -97 -26 -106 18 -117 25 -6 26 -5 67 145
23 84 40 155 37 160 -11 18 -45 17 -62 -2z"/>
<path d="M2303 780 c-41 -25 -52 -64 -29 -103 16 -28 15 -30 -8 -48 -74 -59
-14 -159 96 -159 67 0 97 14 113 54 16 38 9 72 -19 95 -14 12 -14 15 5 30 24
19 29 82 8 107 -37 45 -114 56 -166 24z m108 -56 c18 -22 -1 -49 -36 -49 -31
0 -51 24 -42 49 8 21 60 21 78 0z m-20 -124 c27 -15 25 -58 -4 -71 -33 -15
-77 4 -77 34 0 42 38 60 81 37z"/>
<path d="M2734 793 c-25 -5 -124 -186 -124 -227 l0 -27 72 2 73 2 9 -34 c12
-44 10 -42 46 -34 29 6 30 9 24 40 -5 31 -3 35 20 41 21 5 26 12 26 35 0 26
-3 29 -27 27 -25 -3 -28 1 -31 27 -13 160 -12 155 -40 154 -15 -1 -36 -4 -48
-6z m16 -138 l0 -55 -35 0 c-19 0 -35 2 -35 5 0 11 56 105 63 105 4 0 7 -25 7
-55z"/>
<path d="M3734 4744 c8 -75 33 -132 72 -163 50 -39 68 -25 65 53 -4 110 -46
176 -113 176 l-31 0 7 -66z"/>
<path d="M1230 4743 c-21 -19 -31 -36 -27 -45 7 -20 119 -58 169 -58 51 0 98
25 98 51 0 26 -93 70 -161 77 -40 4 -50 1 -79 -25z"/>
<path d="M3960 4665 c-14 -17 -4 -137 15 -175 20 -38 61 -72 82 -68 15 3 18
15 21 83 2 92 -8 119 -57 152 -40 27 -45 28 -61 8z"/>
<path d="M1029 4607 c-39 -26 -52 -72 -22 -80 118 -34 185 -32 230 7 36 31 23
47 -60 75 -78 27 -106 26 -148 -2z"/>
<path d="M4170 4505 c-8 -10 -11 -42 -9 -98 4 -73 7 -88 32 -120 30 -40 61
-48 72 -19 4 9 9 49 12 87 7 83 -10 126 -57 150 -36 18 -35 18 -50 0z"/>
<path d="M813 4425 c-28 -28 -32 -38 -24 -53 8 -16 26 -21 86 -27 82 -7 131 3
160 35 40 45 -13 78 -128 79 -54 1 -62 -2 -94 -34z"/>
<path d="M4366 4327 c-14 -10 -18 -31 -19 -104 -2 -79 1 -95 19 -120 32 -43
65 -38 80 12 21 67 17 148 -7 179 -29 37 -53 48 -73 33z"/>
<path d="M658 4265 c-37 -21 -63 -71 -47 -91 17 -20 150 -19 192 2 45 23 67
44 67 64 0 24 -22 31 -110 36 -56 3 -82 1 -102 -11z"/>
<path d="M4538 4126 c-8 -8 -20 -46 -28 -85 -15 -80 -5 -134 30 -166 27 -25
43 -9 69 68 26 76 26 103 1 144 -25 42 -54 58 -72 39z"/>
<path d="M514 4070 c-12 -5 -34 -25 -50 -45 -22 -29 -25 -40 -17 -53 9 -14 24
-16 84 -14 41 2 85 10 99 17 38 20 72 61 68 82 -3 15 -14 18 -83 20 -44 1 -90
-2 -101 -7z"/>
<path d="M4685 3910 c-3 -5 -15 -35 -25 -66 -34 -97 -21 -185 28 -192 19 -3
27 6 49 54 14 32 28 79 31 104 3 39 0 51 -23 78 -27 32 -49 40 -60 22z"/>
<path d="M460 3869 c-77 -9 -96 -16 -125 -50 -30 -36 -34 -86 -7 -91 34 -7
147 23 179 48 55 42 67 86 26 95 -10 3 -43 2 -73 -2z"/>
<path d="M4817 3677 c-8 -7 -27 -40 -42 -74 -31 -70 -31 -141 -1 -171 23 -23
43 -8 83 64 36 64 41 109 18 153 -17 34 -38 44 -58 28z"/>
<path d="M305 3636 c-66 -21 -82 -34 -100 -80 -27 -70 -9 -79 93 -50 68 20
132 77 132 118 0 24 -3 26 -42 25 -24 0 -61 -6 -83 -13z"/>
<path d="M4880 3378 c-34 -54 -40 -71 -40 -119 0 -40 5 -61 16 -70 22 -18 39
-5 88 65 44 62 53 111 27 160 -23 42 -47 33 -91 -36z"/>
<path d="M220 3400 c-72 -24 -110 -66 -110 -120 0 -48 8 -49 92 -19 71 26 128
84 128 129 0 26 -4 30 -27 30 -16 -1 -53 -9 -83 -20z"/>
<path d="M4960 3143 c-56 -77 -61 -90 -58 -146 2 -41 7 -53 22 -55 24 -5 98
68 122 120 16 36 16 44 3 81 -20 60 -46 60 -89 0z"/>
<path d="M142 3149 c-34 -17 -69 -40 -76 -52 -21 -35 -27 -82 -11 -103 13 -18
16 -18 78 13 74 36 118 86 120 135 2 28 -2 33 -23 35 -14 2 -53 -11 -88 -28z"/>
<path d="M145 2924 c-95 -50 -135 -95 -135 -151 1 -65 32 -67 113 -8 56 42 93
109 83 149 -7 30 -19 32 -61 10z"/>
<path d="M4998 2876 c-53 -61 -68 -91 -68 -140 0 -53 20 -61 66 -27 84 60 114
115 98 180 -14 55 -40 52 -96 -13z"/>
<path d="M109 2661 c-70 -45 -101 -83 -106 -133 -4 -33 -1 -49 12 -61 9 -9 20
-17 24 -17 4 0 35 26 69 58 49 45 64 67 74 104 9 37 9 50 -1 62 -18 21 -20 21
-72 -13z"/>
<path d="M5011 2613 c-48 -46 -63 -68 -73 -106 -10 -40 -10 -49 4 -63 14 -14
18 -14 45 0 16 8 51 34 77 58 41 37 49 50 53 89 4 34 1 50 -12 62 -9 9 -20 17
-24 17 -5 0 -36 -26 -70 -57z"/>
<path d="M123 2411 c-90 -65 -119 -127 -93 -195 15 -39 40 -31 92 28 53 60 68
91 68 140 0 53 -20 61 -67 27z"/>
<path d="M5025 2374 c-61 -41 -85 -66 -101 -103 -16 -39 -17 -60 -4 -81 8 -12
14 -12 47 4 95 44 143 94 143 150 0 62 -23 71 -85 30z"/>
<path d="M129 2133 c-63 -68 -76 -104 -58 -157 20 -59 45 -59 90 1 54 72 60
89 57 146 -4 72 -29 75 -89 10z"/>
<path d="M4978 2110 c-66 -34 -109 -86 -111 -132 -2 -27 2 -34 20 -36 30 -4
150 54 168 81 16 25 23 86 11 105 -11 17 -24 15 -88 -18z"/>
<path d="M185 1879 c-53 -73 -63 -113 -40 -163 26 -54 48 -47 95 27 34 53 40
70 40 118 0 54 -12 79 -37 79 -7 0 -33 -27 -58 -61z"/>
<path d="M4915 1859 c-65 -25 -125 -87 -125 -129 0 -36 18 -39 100 -14 75 22
120 68 120 123 0 36 -3 41 -22 40 -13 -1 -45 -10 -73 -20z"/>
<path d="M292 1673 c-60 -85 -75 -149 -47 -202 30 -59 54 -49 95 38 32 67 38
121 17 161 -18 35 -41 36 -65 3z"/>
<path d="M4810 1610 c-65 -22 -120 -76 -120 -116 0 -27 1 -27 59 -21 32 2 79
14 103 25 38 16 48 27 63 65 9 25 14 50 10 56 -9 16 -52 12 -115 -9z"/>
<path d="M383 1413 c-15 -31 -28 -78 -31 -104 -4 -40 -1 -50 25 -79 19 -21 36
-31 45 -27 20 7 58 119 58 169 0 51 -25 98 -51 98 -15 0 -27 -15 -46 -57z"/>
<path d="M4720 1385 c-68 -14 -112 -37 -139 -71 -39 -50 -25 -68 53 -65 77 2
122 18 150 52 30 36 35 84 9 91 -10 2 -43 -1 -73 -7z"/>
<path d="M536 1237 c-9 -12 -23 -53 -33 -90 -17 -66 -17 -68 2 -104 27 -49 58
-69 77 -50 19 19 42 140 34 181 -7 35 -40 86 -56 86 -5 0 -16 -10 -24 -23z"/>
<path d="M4550 1161 c-79 -11 -142 -65 -126 -106 5 -15 19 -16 95 -13 96 3
118 14 148 71 27 52 -3 64 -117 48z"/>
<path d="M679 1023 c-6 -16 -14 -60 -17 -100 -5 -72 -5 -72 31 -108 30 -30 39
-34 56 -26 15 9 20 26 26 88 4 51 3 89 -5 108 -26 67 -72 86 -91 38z"/>
<path d="M4307 939 c-36 -19 -67 -62 -54 -75 24 -25 165 -31 207 -9 39 20 66
71 49 91 -19 23 -154 18 -202 -7z"/>
<path d="M855 853 c-4 -10 -9 -50 -12 -88 -7 -83 10 -126 58 -150 50 -27 62
-8 57 95 -3 77 -6 91 -31 123 -30 40 -61 48 -72 20z"/>
<path d="M4125 766 c-38 -16 -58 -40 -53 -63 4 -23 66 -41 142 -42 53 -1 61 2
93 34 48 48 36 70 -48 79 -83 8 -99 7 -134 -8z"/>
<path d="M1044 685 c-4 -8 -5 -51 -3 -94 4 -85 17 -109 72 -138 47 -24 59 -5
51 81 -7 79 -15 98 -52 139 -28 30 -59 35 -68 12z"/>
<path d="M3915 606 c-44 -19 -61 -42 -45 -61 13 -16 129 -55 164 -55 27 0 82
33 95 58 15 28 0 42 -65 57 -73 18 -110 18 -149 1z"/>
<path d="M1254 548 c-10 -15 -6 -104 6 -150 13 -46 61 -88 102 -88 l31 0 -7
67 c-8 79 -27 124 -68 158 -32 27 -53 31 -64 13z"/>
<path d="M3678 464 c-46 -24 -36 -51 29 -81 31 -15 78 -28 104 -31 40 -4 50
-1 79 25 21 19 31 36 27 45 -7 21 -120 58 -171 58 -23 -1 -53 -8 -68 -16z"/>
<path d="M1473 371 c8 -90 36 -144 85 -164 73 -29 85 -10 56 91 -20 69 -77
132 -119 132 -28 0 -28 0 -22 -59z"/>
<path d="M3452 360 c-34 -14 -39 -40 -11 -63 40 -33 117 -67 149 -67 56 0 112
43 94 71 -3 5 -35 23 -71 39 -66 30 -119 37 -161 20z"/>
<path d="M1700 307 c0 -50 33 -132 65 -164 27 -27 41 -33 74 -33 49 0 51 11
20 94 -27 69 -85 126 -129 126 -25 0 -30 -4 -30 -23z"/>
<path d="M3189 264 c-18 -22 -5 -39 65 -88 62 -44 111 -53 160 -27 42 23 33
47 -36 91 -54 34 -71 40 -119 40 -40 0 -61 -5 -70 -16z"/>
<path d="M1947 254 c-4 -4 -7 -16 -7 -27 0 -25 55 -141 75 -157 25 -21 92 -29
112 -14 17 12 16 17 -14 77 -18 37 -46 76 -66 91 -35 27 -87 43 -100 30z"/>
<path d="M2947 213 c-17 -16 -4 -44 41 -85 67 -62 103 -75 156 -57 53 18 59
46 16 77 -87 65 -102 72 -155 72 -28 0 -55 -3 -58 -7z"/>
<path d="M2187 196 c-13 -32 59 -148 105 -172 49 -25 108 -16 108 17 0 25 -70
120 -105 143 -40 27 -100 33 -108 12z"/>
<path d="M2440 175 c-10 -12 -7 -23 13 -57 42 -70 89 -110 139 -115 33 -4 49
-1 61 12 9 9 17 20 17 24 0 4 -24 35 -54 67 -38 42 -66 64 -94 72 -52 16 -67
15 -82 -3z"/>
<path d="M2695 179 c-14 -22 7 -59 61 -108 44 -40 63 -51 89 -51 48 0 85 16
85 37 0 21 -96 108 -135 123 -35 13 -92 13 -100 -1z"/>
</g>
</svg>
